<svg width="945" height="945" viewBox="0 0 945 945" fill="none" xmlns="http://www.w3.org/2000/svg">
<rect width="945" height="945" fill="white"/>
<path d="M327.782 529.429C326.277 547.505 310.403 560.937 292.328 559.431C274.253 557.925 260.821 542.052 262.327 523.976C263.833 505.901 279.706 492.469 297.781 493.975C315.856 495.481 329.288 511.354 327.782 529.429Z" fill="#DCDCDC"/>
<path d="M478.393 620.336C476.987 637.206 462.172 649.743 445.302 648.337C428.432 646.932 415.896 632.117 417.301 615.247C418.706 598.377 433.522 585.84 450.392 587.245C467.262 588.651 479.798 603.466 478.393 620.336Z" fill="#DCDCDC"/>
<path d="M416.03 683.248C415.127 694.093 405.603 702.152 394.757 701.249C383.912 700.345 375.853 690.821 376.757 679.976C377.66 669.131 387.184 661.072 398.029 661.975C408.874 662.879 416.934 672.403 416.03 683.248Z" fill="#DCDCDC"/>
<path d="M273.372 709.547C278.185 719.307 274.175 731.122 264.415 735.935C254.655 740.749 242.841 736.738 238.027 726.978C233.214 717.218 237.224 705.404 246.984 700.59C256.744 695.777 268.558 699.787 273.372 709.547Z" fill="#DCDCDC"/>
<path d="M280.996 598.765C280.092 609.61 270.568 617.669 259.723 616.766C248.878 615.862 240.819 606.338 241.723 595.493C242.626 584.648 252.15 576.589 262.995 577.492C273.84 578.396 281.899 587.92 280.996 598.765Z" fill="#DCDCDC"/>
<path d="M324.576 743.736C323.706 754.179 314.534 761.94 304.091 761.07C293.647 760.2 285.887 751.028 286.757 740.585C287.627 730.142 296.798 722.381 307.241 723.251C317.685 724.121 325.446 733.292 324.576 743.736Z" fill="#DCDCDC"/>
<path d="M241.728 806.405C241.226 812.43 235.935 816.908 229.909 816.406C223.884 815.904 219.407 810.613 219.909 804.588C220.411 798.563 225.702 794.085 231.727 794.587C237.752 795.089 242.23 800.38 241.728 806.405Z" fill="#DCDCDC"/>
<path d="M321.362 694.402C320.86 700.427 315.569 704.904 309.544 704.402C303.519 703.9 299.042 698.609 299.544 692.584C300.046 686.559 305.337 682.082 311.362 682.584C317.387 683.086 321.864 688.377 321.362 694.402Z" fill="#DCDCDC"/>
<path d="M265.242 770.283C264.74 776.308 259.449 780.785 253.424 780.284C247.399 779.782 242.922 774.49 243.424 768.465C243.926 762.44 249.217 757.963 255.242 758.465C261.267 758.967 265.744 764.258 265.242 770.283Z" fill="#DCDCDC"/>
<path d="M368.455 709.31C367.651 718.95 359.186 726.114 349.546 725.311C339.906 724.507 332.742 716.042 333.545 706.402C334.348 696.762 342.814 689.598 352.454 690.401C362.094 691.204 369.258 699.67 368.455 709.31Z" fill="#DCDCDC"/>
<path d="M230.453 748.344C229.951 754.369 224.66 758.847 218.635 758.345C212.61 757.843 208.133 752.552 208.635 746.527C209.137 740.502 214.428 736.024 220.453 736.526C226.478 737.028 230.955 742.319 230.453 748.344Z" fill="#DCDCDC"/>
<path d="M241.117 637.918C240.615 643.943 235.324 648.42 229.299 647.919C223.274 647.417 218.797 642.125 219.299 636.1C219.801 630.075 225.092 625.598 231.117 626.1C237.142 626.602 241.619 631.893 241.117 637.918Z" fill="#DCDCDC"/>
<path d="M235.543 687.252C235.041 693.277 229.75 697.755 223.725 697.253C217.7 696.751 213.223 691.46 213.724 685.435C214.226 679.41 219.518 674.932 225.543 675.434C231.568 675.936 236.045 681.227 235.543 687.252Z" fill="#DCDCDC"/>
<path d="M436.224 536.937C434.827 559.032 415.784 575.812 393.689 574.415C371.594 573.019 354.815 553.975 356.211 531.88C357.608 509.786 376.651 493.006 398.746 494.403C420.841 495.799 437.62 514.843 436.224 536.937Z" fill="#DCDCDC"/>
<path d="M384.937 616.944C382.997 640.241 362.537 657.554 339.241 655.613C315.944 653.672 298.631 633.213 300.572 609.916C302.513 586.619 322.972 569.307 346.269 571.248C369.566 573.189 386.878 593.648 384.937 616.944Z" fill="#DCDCDC"/>
<path d="M292.436 656.993C294.603 668.988 286.635 680.467 274.641 682.634C262.646 684.8 251.167 676.833 249.001 664.838C246.834 652.844 254.802 641.364 266.796 639.198C278.79 637.032 290.27 644.999 292.436 656.993Z" fill="#DCDCDC"/>
<path d="M516.466 178.206C230.558 342.76 247.963 546.947 325.296 462.58C374.579 439.05 465.663 527.002 471.237 460.092C476.812 393.181 525.239 506.333 495.364 610.033C445.242 784.014 776.885 327.276 790.791 141.809C614.023 214.206 643.112 119.961 516.466 178.206Z" fill="url(#paint0_linear_608_44)"/>
<path d="M698.547 425.654L672.391 377.079H668.467V425.654H631.849V293.939H689.579C700.166 293.939 709.134 295.808 716.483 299.544C723.831 303.156 729.374 308.201 733.11 314.677C736.847 321.03 738.715 328.191 738.715 336.163C738.715 345.131 736.224 353.04 731.242 359.89C726.385 366.616 719.223 371.411 709.757 374.276L739.463 425.654H698.547ZM668.467 352.043H686.59C691.572 352.043 695.308 350.86 697.8 348.494C700.291 346.127 701.536 342.702 701.536 338.218C701.536 333.983 700.228 330.682 697.613 328.316C695.122 325.825 691.447 324.579 686.59 324.579H668.467V352.043Z" fill="black"/>
<path d="M534.714 293.939V370.353C534.714 377.452 536.333 382.932 539.571 386.794C542.934 390.655 547.978 392.585 554.704 392.585C561.43 392.585 566.475 390.655 569.838 386.794C573.325 382.808 575.069 377.328 575.069 370.353V293.939H611.687V370.353C611.687 382.434 609.134 392.772 604.027 401.366C598.921 409.836 591.946 416.25 583.102 420.61C574.384 424.845 564.669 426.962 553.957 426.962C543.245 426.962 533.655 424.845 525.185 420.61C516.84 416.25 510.239 409.836 505.381 401.366C500.648 392.897 498.282 382.559 498.282 370.353V293.939H534.714Z" fill="black"/>
<path d="M414.935 426.962C402.604 426.962 391.27 424.097 380.932 418.368C370.594 412.514 362.374 404.48 356.271 394.267C350.292 383.929 347.303 372.283 347.303 359.33C347.303 346.376 350.292 334.793 356.271 324.579C362.374 314.241 370.594 306.208 380.932 300.478C391.27 294.749 402.604 291.884 414.935 291.884C427.39 291.884 438.725 294.749 448.938 300.478C459.276 306.208 467.434 314.241 473.413 324.579C479.391 334.793 482.381 346.376 482.381 359.33C482.381 372.283 479.391 383.929 473.413 394.267C467.434 404.48 459.276 412.514 448.938 418.368C438.6 424.097 427.266 426.962 414.935 426.962ZM414.935 392.959C424.277 392.959 431.625 389.907 436.981 383.804C442.461 377.701 445.202 369.543 445.202 359.33C445.202 348.867 442.461 340.647 436.981 334.668C431.625 328.565 424.277 325.513 414.935 325.513C405.469 325.513 398.058 328.565 392.702 334.668C387.347 340.647 384.669 348.867 384.669 359.33C384.669 369.668 387.347 377.888 392.702 383.991C398.058 389.97 405.469 392.959 414.935 392.959Z" fill="black"/>
<path d="M296.632 397.63H337.548V425.654H260.014V293.939H296.632V397.63Z" fill="black"/>
<path d="M244.591 293.939V323.085H191.905V346.252H230.766V374.089H191.905V425.654H155.287V293.939H244.591Z" fill="black"/>
<path d="M498.727 527.212C506.465 528.959 512.581 532.828 517.074 538.818C521.691 544.684 524 551.424 524 559.037C524 570.269 520.131 579.068 512.393 585.433C504.656 591.798 493.798 594.98 479.82 594.98H414.485V463H477.76C491.239 463 501.785 465.995 509.398 471.986C517.136 477.976 521.005 486.401 521.005 497.259C521.005 504.996 518.946 511.486 514.827 516.728C510.833 521.845 505.467 525.34 498.727 527.212ZM451.177 515.418H469.711C478.946 515.418 483.564 511.611 483.564 503.998C483.564 496.135 478.946 492.204 469.711 492.204H451.177V515.418ZM472.519 565.402C481.754 565.402 486.372 561.533 486.372 553.795C486.372 549.801 485.124 546.743 482.628 544.622C480.256 542.5 476.824 541.439 472.331 541.439H451.177V565.402H472.519Z" fill="black"/>
<path d="M343.555 573.451H296.754L289.64 594.98H251.076L299.188 463H341.496L389.421 594.98H350.669L343.555 573.451ZM334.382 545.371L320.155 502.688L306.114 545.371H334.382Z" fill="black"/>
<path d="M191.692 566.899H232.69V594.98H155V463H191.692V566.899Z" fill="black"/>
<defs>
<linearGradient id="paint0_linear_608_44" x1="507.608" y1="110.518" x2="437.876" y2="741.596" gradientUnits="userSpaceOnUse">
<stop stop-color="#727272"/>
<stop offset="1" stop-color="#CBCBCB" stop-opacity="0"/>
</linearGradient>
</defs>
</svg>
